<?xml version="1.0" encoding="UTF-8" standalone="no"?>
<svg width="800px" height="800px" viewBox="0 0 800 800" version="1.1" xmlns="http://www.w3.org/2000/svg" xmlns:xlink="http://www.w3.org/1999/xlink" xmlns:sketch="http://www.bohemiancoding.com/sketch/ns">
    <!-- Generator: Sketch 3.4.3 (16044) - http://www.bohemiancoding.com/sketch -->
    <title>Untitled</title>
    <desc>Created with Sketch.</desc>
    <defs>
        <filter x="-50%" y="-50%" width="200%" height="200%" filterUnits="objectBoundingBox" id="filter-1">
            <feMorphology radius="2" in="SourceAlpha" operator="dilate" result="shadowSpreadOuter1"></feMorphology>
            <feOffset dx="0" dy="0" in="shadowSpreadOuter1" result="shadowOffsetOuter1"></feOffset>
            <feGaussianBlur stdDeviation="50" in="shadowOffsetOuter1" result="shadowBlurOuter1"></feGaussianBlur>
            <feColorMatrix values="0 0 0 0 0   0 0 0 0 0   0 0 0 0 0  0 0 0 0.35 0" in="shadowBlurOuter1" type="matrix" result="shadowMatrixOuter1"></feColorMatrix>
            <feMerge>
                <feMergeNode in="shadowMatrixOuter1"></feMergeNode>
                <feMergeNode in="SourceGraphic"></feMergeNode>
            </feMerge>
        </filter>
    </defs>
    <g id="Page-1" stroke="none" stroke-width="1" fill="none" fill-rule="evenodd" sketch:type="MSPage">
        <rect id="Rectangle-1" sketch:type="MSShapeGroup" x="-70" y="8" width="910" height="764"></rect>
        <path d="M194.370145,593.180854 C243.039016,640.710239 309.599013,670 383,670 C532.116882,670 653,549.116882 653,400 C653,250.883118 532.116882,130 383,130 C233.883118,130 113,250.883118 113,400 C113,475.715895 144.166364,544.152496 194.370145,593.180854 Z" id="Oval-1" fill="#00DEAF" filter="url(#filter-1)" sketch:type="MSShapeGroup"></path>
        <g id="Oval-1-+-Triangle-1" sketch:type="MSLayerGroup" transform="translate(9.000000, -5.000000)" fill="#FFFFFF">
            <path d="M162.006778,573.822718 C235.995662,666.359645 354.228173,696.854637 459.367981,662.357152 C529.464511,392.569413 300.12327,241.431476 111.8388,334.473278 C88.5317246,431.841363 114.741277,512.623195 162.006778,573.822718 Z M184.671516,598.896339 C233.520642,646.601759 300.327157,676 374,676 C523.669167,676 645,554.669167 645,405 C645,255.330833 523.669167,134 374,134 C224.330833,134 103,255.330833 103,405 C103,480.996324 134.281795,549.686394 184.671516,598.896339 Z" id="Oval-1" sketch:type="MSShapeGroup"></path>
            <polygon id="Triangle-1" sketch:type="MSShapeGroup" transform="translate(629.906417, 607.582604) scale(-1, 1) rotate(-133.000000) translate(-629.906417, -607.582604) " points="627.160776 537.9217 689.207242 677.243508 570.605592 669.488152 "></polygon>
        </g>
        <path d="M208.194359,410.378665 C308.820992,378.607921 244.73481,485.58774 244.73481,485.58774" id="Path-1" stroke="#038F6D" stroke-width="10" sketch:type="MSShapeGroup"></path>
        <path d="M329.119882,529.933012 C429.746515,498.162268 365.660333,605.142087 365.660333,605.142087" id="Path-1" stroke="#038F6D" stroke-width="10" sketch:type="MSShapeGroup" transform="translate(357.445869, 564.589566) scale(-1, 1) rotate(-94.000000) translate(-357.445869, -564.589566) "></path>
    </g>
</svg>