<?xml version="1.0" encoding="UTF-8" standalone="no"?>
<svg width="142px" height="142px" viewBox="0 0 142 142" version="1.1" xmlns="http://www.w3.org/2000/svg" xmlns:xlink="http://www.w3.org/1999/xlink" xmlns:sketch="http://www.bohemiancoding.com/sketch/ns">
    <!-- Generator: Sketch 3.4.2 (15857) - http://www.bohemiancoding.com/sketch -->
    <title>Untitled</title>
    <desc>Created with Sketch.</desc>
    <defs></defs>
    <g id="Page-1" stroke="none" stroke-width="1" fill="none" fill-rule="evenodd" sketch:type="MSPage">
        <path d="M26.7808836,113.213594 C37.415933,123.599645 51.960525,130 68,130 C100.5848,130 127,103.5848 127,71 C127,38.4151998 100.5848,12 68,12 C35.4151998,12 9,38.4151998 9,71 C9,87.5453252 15.8104278,102.49999 26.7808836,113.213594 Z" id="Oval-1" fill="#00DEAF" sketch:type="MSShapeGroup"></path>
        <g id="Oval-1-+-Triangle-1" sketch:type="MSLayerGroup" transform="translate(-14.000000, -18.000000)" fill="#FFFFFF">
            <path d="M35.6332043,126.211646 C51.9069742,146.565037 77.912079,153.272375 101.037459,145.684693 C116.45511,86.3451906 66.0117679,53.1025754 24.5988153,73.5670126 C19.4724509,94.9830109 25.2372118,112.750882 35.6332043,126.211646 Z M40.6182874,131.726561 C51.3625964,142.219313 66.0566126,148.685422 82.2608696,148.685422 C115.180431,148.685422 141.867008,121.998845 141.867008,89.0792839 C141.867008,56.1597228 115.180431,29.4731458 82.2608696,29.4731458 C49.3413085,29.4731458 22.6547315,56.1597228 22.6547315,89.0792839 C22.6547315,105.794588 29.5351263,120.90289 40.6182874,131.726561 Z" id="Oval-1" sketch:type="MSShapeGroup"></path>
            <polygon id="Triangle-1" sketch:type="MSShapeGroup" transform="translate(138.547191, 133.637094) scale(-1, 1) rotate(-133.000000) translate(-138.547191, -133.637094) " points="137.943291 118.315259 151.59034 148.95893 125.504043 147.253149 "></polygon>
        </g>
        <path d="M29,73.3085181 C50.3146959,66.2574967 36.7399848,90 36.7399848,90" id="Path-1" stroke="#038F6D" stroke-width="2.2" sketch:type="MSShapeGroup"></path>
        <path d="M56,99.3085181 C77.3146959,92.2574967 63.7399848,116 63.7399848,116" id="Path-1" stroke="#038F6D" stroke-width="2.2" sketch:type="MSShapeGroup" transform="translate(62.000000, 107.000000) scale(-1, 1) rotate(-94.000000) translate(-62.000000, -107.000000) "></path>
    </g>
</svg>